<?xml version="1.0" encoding="utf-8"?>
<!-- Generator: Adobe Illustrator 16.0.0, SVG Export Plug-In . SVG Version: 6.00 Build 0)  -->
<!DOCTYPE svg PUBLIC "-//W3C//DTD SVG 1.1//EN" "http://www.w3.org/Graphics/SVG/1.1/DTD/svg11.dtd">
<svg version="1.1" id="Layer_1" xmlns="http://www.w3.org/2000/svg" xmlns:xlink="http://www.w3.org/1999/xlink" x="0px" y="0px"
	 width="200px" height="200px" viewBox="0 0 200 200" enable-background="new 0 0 200 200" xml:space="preserve">
<g display="none">
	
		<rect x="-8.5" y="74.5" transform="matrix(-0.7071 -0.7071 0.7071 -0.7071 -57.6906 144.1022)" display="inline" fill="#FFF200" width="19" height="19"/>
</g>
<rect x="191.5" y="74.5" transform="matrix(-0.7071 -0.7071 0.7071 -0.7071 283.7282 285.5261)" display="none" fill="#FFF200" width="19" height="19"/>
<g display="none">
	<path display="inline" d="M1,99.202L-14.202,84L1,68.797L16.202,84L1,99.202z M-10.667,84L1,95.667L12.667,84L1,72.332L-10.667,84z
		"/>
</g>
<g display="none">
	<polygon display="inline" fill="#22B14C" points="0.996,128.7 -7.734,119.971 0.996,111.23 17.196,95 34.696,95 	"/>
</g>
<g display="none">
	<polygon display="inline" fill="#FF7F27" points="-7.734,119.971 -32.704,95 -15.194,95 0.996,111.23 	"/>
</g>
<polygon display="none" fill="#22B14C" points="200.996,128.7 192.266,119.971 200.996,111.23 217.196,95 234.696,95 "/>
<polygon display="none" fill="#FF7F27" points="192.266,119.971 167.296,95 184.807,95 200.996,111.23 "/>
<rect x="76.572" y="38.256" transform="matrix(-0.7071 -0.7071 0.7071 -0.7071 127.102 176.0371)" fill="#FFF200" width="46.876" height="46.876"/>
<polygon fill="#22B14C" points="100,171.499 78.46,149.962 100,128.397 139.97,88.354 183.146,88.354 "/>
<polygon fill="#FF7F27" points="78.46,149.962 16.854,88.354 60.058,88.354 100,128.397 "/>
<polygon fill="none" points="96.519,128.328 59.15,90.5 23.031,90.5 78.521,146.173 "/>
<rect x="79.099" y="40.799" transform="matrix(0.7071 0.7071 -0.7071 0.7071 72.9296 -52.6436)" fill="none" width="41.822" height="41.822"/>
<polygon fill="none" points="176.969,90.5 140.876,90.5 103.471,128.332 103.477,128.521 84.764,147.346 82,150.16 100,167.813 "/>
<path d="M136.539,61.71L100.01,25.179L63.479,61.71l36.53,36.531L136.539,61.71z M100.01,32.137l29.572,29.573L100.01,91.284
	L70.438,61.71L100.01,32.137z"/>
<path d="M188.847,85.5h-50.013l-38.84,38.9L61.192,85.5H11.153L100,174.353L188.847,85.5z M59.15,90.5l37.368,37.828l-17.998,17.845
	L23.031,90.5H59.15z M140.876,90.5h36.093L100,167.836l-18-18.17L140.876,90.5z"/>
<g display="none">
	<path display="inline" d="M0.996,130.468L-35.722,93.75h21.046l15.672,15.711L16.678,93.75h21.036L0.996,130.468z M-29.687,96.25
		l30.683,30.683L31.679,96.25H17.715L0.996,113l-16.708-16.75H-29.687z"/>
</g>
<g display="none">
	
		<rect x="-4.619" y="109.424" transform="matrix(0.7073 0.7069 -0.7069 0.7073 80.7333 36.2176)" display="inline" width="2.5" height="12.353"/>
</g>
</svg>
